HIERARCHY
ROOT SpineBase
{
  OFFSET 0.000000 0.000000 0.000000
  CHANNELS 6 Xposition Yposition Zposition Zrotation Xrotation Yrotation
  JOINT SpineMid
  {
    OFFSET -0.000000 30.578953 0.000000
    CHANNELS 3 Zrotation Xrotation Yrotation
    JOINT SpineShoulder
    {
      OFFSET 0.106478 22.698400 -0.862059
      CHANNELS 3 Zrotation Xrotation Yrotation
      JOINT Neck
      {
        OFFSET 0.118126 7.522287 -0.622374
        CHANNELS 3 Zrotation Xrotation Yrotation
        JOINT Head
        {
          OFFSET 3.546316 13.645075 2.844905
          CHANNELS 3 Zrotation Xrotation Yrotation
          End Site
          {
            OFFSET 0 0 0
          }
        }
      }
      JOINT ShoulderLeft
      {
        OFFSET -11.897773 -3.457947 -10.363399
        CHANNELS 3 Zrotation Xrotation Yrotation
        JOINT ElbowLeft
        {
          OFFSET -7.483051 -25.794286 -4.824245
          CHANNELS 3 Zrotation Xrotation Yrotation
          JOINT WristLeft
          {
            OFFSET -1.892288 -20.325873 -4.017587
            CHANNELS 3 Zrotation Xrotation Yrotation
            JOINT HandLeft
            {
              OFFSET -1.099162 -7.458781 1.047841
              CHANNELS 3 Zrotation Xrotation Yrotation
              JOINT HandTipLeft
              {
                OFFSET -0.185172 -8.870193 0.151070
                CHANNELS 3 Zrotation Xrotation Yrotation
                End Site
                {
                  OFFSET 0 0 0
                }
              }
              JOINT ThumbLeft
              {
                OFFSET 4.392637 0.723105 -0.387553
                CHANNELS 3 Zrotation Xrotation Yrotation
                End Site
                {
                  OFFSET 0 0 0
                }
              }
            }
          }
        }
      }
      JOINT ShoulderRight
      {
        OFFSET 12.233012 -2.828192 10.587370
        CHANNELS 3 Zrotation Xrotation Yrotation
        JOINT ElbowRight
        {
          OFFSET 1.943273 -26.033734 8.459208
          CHANNELS 3 Zrotation Xrotation Yrotation
          JOINT WristRight
          {
            OFFSET 0.269830 -27.652429 0.492736
            CHANNELS 3 Zrotation Xrotation Yrotation
            JOINT HandRight
            {
              OFFSET -1.222226 -1.132189 2.136544
              CHANNELS 3 Zrotation Xrotation Yrotation
              JOINT HandTipRight
              {
                OFFSET 1.719190 -3.363341 2.106459
                CHANNELS 3 Zrotation Xrotation Yrotation
                End Site
                {
                  OFFSET 0 0 0
                }
              }
              JOINT ThumbRight
              {
                OFFSET -0.864093 1.492972 -3.713454
                CHANNELS 3 Zrotation Xrotation Yrotation
                End Site
                {
                  OFFSET 0 0 0
                }
              }
            }
          }
        }
      }
    }
  }
  JOINT HipLeft
  {
    OFFSET -4.840143 1.613175 -7.303772
    CHANNELS 3 Zrotation Xrotation Yrotation
    JOINT KneeLeft
    {
      OFFSET -9.859110 -34.857790 -2.150969
      CHANNELS 3 Zrotation Xrotation Yrotation
      JOINT AnkleLeft
      {
        OFFSET -3.976627 -38.543144 11.212369
        CHANNELS 3 Zrotation Xrotation Yrotation
        JOINT FootLeft
        {
          OFFSET 2.623145 -8.198800 -5.007859
          CHANNELS 3 Zrotation Xrotation Yrotation
          End Site
          {
            OFFSET 0 0 0
          }
        }
      }
    }
  }
  JOINT HipRight
  {
    OFFSET 5.829192 0.139513 0.426617
    CHANNELS 3 Zrotation Xrotation Yrotation
    JOINT KneeRight
    {
      OFFSET 4.171637 -36.368528 0.999111
      CHANNELS 3 Zrotation Xrotation Yrotation
      JOINT AnkleRight
      {
        OFFSET -1.258356 -37.760437 1.326177
        CHANNELS 3 Zrotation Xrotation Yrotation
        JOINT FootRight
        {
          OFFSET 6.802127 -3.860046 -11.477725
          CHANNELS 3 Zrotation Xrotation Yrotation
          End Site
          {
            OFFSET 0 0 0
          }
        }
      }
    }
  }
}
MOTION
Frames: 13
Frame Time: 0.033333
-48.201940 80.493954 331.749008 0.000000 0.000000 -35.924937 -0.000000 0.000000 35.924937 -0.000000 0.000000 0.000000 -0.000000 0.000000 0.000000 0.000000 0.000000 0.000000 -0.000000 0.000000 0.000000 -0.000000 0.000000 0.000000 -0.000000 0.000000 0.000000 -0.000000 0.000000 0.000000 0.000000 0.000000 0.000000 0.000000 0.000000 0.000000 -0.000000 0.000000 0.000000 -0.000000 0.000000 0.000000 -0.000000 0.000000 0.000000 -0.000000 0.000000 0.000000 0.000000 0.000000 0.000000 0.000000 0.000000 0.000000 -0.000000 0.000000 35.924937 -0.000000 0.000000 0.000000 -0.000000 0.000000 0.000000 0.000000 0.000000 0.000000 -0.000000 0.000000 35.924937 -0.000000 0.000000 0.000000 -0.000000 0.000000 0.000000 0.000000 0.000000 0.000000
-48.253213 80.446900 331.723595 -0.194784 -0.047393 -35.871675 0.130069 0.152542 35.871422 -0.000000 0.000000 0.000000 -0.000000 0.000000 0.000000 0.000000 0.000000 0.000000 -0.000000 0.000000 0.000000 -0.000000 0.000000 0.000000 3.160827 1.918747 0.109133 -4.006873 -2.144206 -0.253926 0.000000 0.000000 0.000000 0.000000 0.000000 0.000000 -0.000000 0.000000 0.000000 -0.000000 0.000000 0.000000 11.297269 18.288157 -0.590181 -16.440817 -8.062942 -2.384091 0.000000 0.000000 0.000000 0.000000 0.000000 0.000000 0.130069 0.152542 35.871422 -0.000000 0.000000 0.000000 -0.000000 0.000000 0.000000 0.000000 0.000000 0.000000 0.130069 0.152542 35.871422 -0.000000 0.000000 0.000000 -0.000000 0.000000 0.000000 0.000000 0.000000 0.000000
-48.284474 80.406891 331.702412 -0.349403 -0.092650 -35.857878 0.228912 0.279761 35.857036 -0.000000 0.000000 0.000000 -0.000000 0.000000 0.000000 0.000000 0.000000 0.000000 -0.755990 -0.756038 0.355496 -0.194521 1.378225 -0.216221 6.867560 3.108487 0.025260 -7.407430 -3.989475 -0.590807 0.000000 0.000000 0.000000 0.000000 0.000000 0.000000 -0.000000 0.000000 0.000000 -0.745760 -0.835797 -0.026882 22.551786 33.023019 -3.528658 -29.934620 -12.681313 -9.050533 0.000000 0.000000 0.000000 0.000000 0.000000 0.000000 0.228912 0.279761 35.857036 -0.000000 0.000000 0.000000 -0.000000 0.000000 0.000000 0.000000 0.000000 0.000000 0.228912 0.279761 35.857036 -0.000000 0.000000 0.000000 -0.000000 0.000000 0.000000 0.000000 0.000000 0.000000
-48.295724 80.373928 331.685461 -0.463947 -0.135785 -35.883844 0.296310 0.381950 35.882307 -0.000000 0.000000 0.000000 -0.000000 0.000000 0.000000 0.000000 0.000000 0.000000 -0.998377 -0.932735 0.448745 -0.031998 1.918628 -0.324677 9.325574 4.491036 -0.003011 -10.241729 -5.558378 -0.965326 0.000000 0.000000 0.000000 0.000000 0.000000 0.000000 -0.000000 0.000000 0.000000 -0.789544 -1.188635 -0.033854 31.014163 41.914954 -6.663567 -39.119828 -12.812125 -15.557222 0.000000 0.000000 0.000000 0.000000 0.000000 0.000000 0.296310 0.381950 35.882307 -0.000000 0.000000 0.000000 -0.000000 0.000000 0.000000 0.000000 0.000000 0.000000 0.296310 0.381950 35.882307 -0.000000 0.000000 0.000000 -0.000000 0.000000 0.000000 0.000000 0.000000 0.000000
-48.286962 80.348010 331.672742 -0.538478 -0.176816 -35.949739 0.332122 0.459259 35.947577 -0.000000 0.000000 0.000000 -0.000000 0.000000 0.000000 0.000000 0.000000 0.000000 -1.156266 -0.979563 0.489906 0.308987 2.362834 -0.442443 11.184019 5.795694 -0.036747 -12.541912 -6.876232 -1.341490 0.000000 0.000000 0.000000 0.000000 0.000000 0.000000 -0.000000 0.000000 0.000000 -0.613915 -1.498068 -0.033578 36.788641 47.054499 -8.723332 -44.589352 -10.316067 -20.377960 0.000000 0.000000 0.000000 0.000000 0.000000 0.000000 0.332122 0.459259 35.947577 -0.000000 0.000000 0.000000 -0.000000 0.000000 0.000000 0.000000 0.000000 0.000000 0.332122 0.459259 35.947577 -0.000000 0.000000 0.000000 -0.000000 0.000000 0.000000 0.000000 0.000000 0.000000
-48.258189 80.329137 331.664253 -0.573037 -0.215755 -36.055586 0.336297 0.511691 36.053005 -0.000000 0.000000 0.000000 -0.000000 0.000000 0.000000 0.000000 0.000000 0.000000 -1.231550 -0.896946 0.480119 0.829429 2.710160 -0.571600 12.475258 7.048849 -0.068200 -14.332354 -7.968954 -1.690247 0.000000 0.000000 0.000000 0.000000 0.000000 0.000000 -0.000000 0.000000 0.000000 -0.219007 -1.763988 -0.024482 40.026366 49.927733 -9.254806 -47.501170 -6.538165 -23.673013 0.000000 0.000000 0.000000 0.000000 0.000000 0.000000 0.336297 0.511691 36.053005 -0.000000 0.000000 0.000000 -0.000000 0.000000 0.000000 0.000000 0.000000 0.000000 0.336297 0.511691 36.053005 -0.000000 0.000000 0.000000 -0.000000 0.000000 0.000000 0.000000 0.000000 0.000000
-48.211053 80.326368 331.661610 -0.593591 -0.249056 -36.226073 -0.238193 -0.060094 36.195178 0.821171 0.157202 0.029326 -0.000000 0.000000 0.000000 0.000000 0.000000 0.000000 -1.149315 -0.595589 0.381032 1.482905 3.020671 -0.690688 13.817041 7.991909 0.059376 -17.074219 -9.260781 -2.275854 0.000000 0.000000 0.000000 0.000000 0.000000 0.000000 -0.000000 0.000000 0.000000 0.541336 -1.635654 0.001412 39.137209 49.914369 -8.175873 -47.399263 -0.802785 -22.748348 0.000000 0.000000 0.000000 0.000000 0.000000 0.000000 0.331677 0.551698 36.223186 -0.000000 0.000000 0.000000 -0.000000 0.000000 0.000000 0.000000 0.000000 0.000000 0.331677 0.551698 36.223186 -0.000000 0.000000 0.000000 0.084140 -0.370214 -0.909849 0.000000 0.000000 0.000000
-48.149396 80.327211 331.656305 -0.572009 -0.282435 -36.425870 -0.291733 -0.061049 36.394322 0.842908 0.158788 0.030103 -0.000000 0.000000 0.000000 0.000000 0.000000 0.000000 -1.038184 -0.278876 0.271960 2.084388 2.918069 -0.754952 14.254606 9.251894 -0.045399 -18.380103 -9.949472 -2.612856 0.000000 0.000000 0.000000 0.000000 0.000000 0.000000 -0.000000 0.000000 0.000000 0.615578 -2.040719 0.002017 39.221786 50.468336 -5.690770 -49.322130 4.112420 -27.460096 0.000000 0.000000 0.000000 0.000000 0.000000 0.000000 0.292566 0.566894 36.423013 -0.000000 0.000000 0.000000 -0.000000 0.000000 0.000000 0.000000 0.000000 0.000000 0.292566 0.566894 36.423013 -0.000000 0.000000 0.000000 0.106668 -0.414116 -1.056128 0.000000 0.000000 0.000000
-48.051354 80.321313 331.664058 -0.467807 -0.320518 -36.688969 -0.371519 -0.064869 36.659241 0.804404 0.150979 0.028785 -0.000000 0.000000 0.000000 0.000000 0.000000 0.000000 -0.911240 0.147936 0.128363 3.255409 3.003416 -0.937764 13.294810 10.194327 -0.017239 -18.091851 -9.291111 -2.613450 0.000000 0.000000 0.000000 0.000000 0.000000 0.000000 -0.000000 0.000000 0.000000 1.752483 -2.433791 0.044683 37.684016 50.512438 -3.650216 -49.976857 7.817167 -30.001905 0.000000 0.000000 0.000000 0.000000 0.000000 0.000000 0.183641 0.536516 36.686801 -0.000000 0.000000 0.000000 -0.000000 0.000000 0.000000 0.000000 0.000000 0.000000 0.183641 0.536516 36.686801 -0.000000 0.000000 0.000000 0.137897 -0.445831 -1.206493 0.000000 0.000000 0.000000
-47.938354 80.307544 331.675960 -0.301217 -0.360034 -36.923485 0.024519 0.468779 36.922439 -0.000000 0.000000 0.000000 -0.000000 0.000000 0.000000 0.000000 0.000000 0.000000 -0.724668 0.747673 -0.076410 4.761187 2.966969 -1.133181 11.492743 12.043211 -0.237384 -14.954982 -9.194373 -1.966252 0.000000 0.000000 0.000000 0.000000 0.000000 0.000000 0.739193 0.337273 0.263316 2.701770 -2.920607 -0.133455 35.436591 50.785684 1.979912 -49.136823 12.153016 -33.840656 0.000000 0.000000 0.000000 0.000000 0.000000 0.000000 0.024519 0.468779 36.922439 -0.000000 0.000000 0.000000 -0.000000 0.000000 0.000000 0.000000 0.000000 0.000000 0.024519 0.468779 36.922439 -0.000000 0.000000 0.000000 0.171254 -0.467297 -1.344693 0.000000 0.000000 0.000000
-47.815065 80.284485 331.692542 -0.123302 -0.389740 -37.138347 -0.137009 0.385136 37.138388 -0.000000 0.000000 0.000000 -0.899101 -0.143758 0.223297 0.000000 0.000000 0.000000 -0.394779 1.226039 -0.276803 5.730152 3.225659 -1.273850 10.563204 14.347878 -0.645984 -11.721134 -12.003879 -0.993845 0.000000 0.000000 0.000000 0.000000 0.000000 0.000000 1.025652 0.492748 0.365913 4.620846 -3.537844 -0.104708 34.459870 52.723861 6.761224 -47.844555 14.364331 -37.813404 0.000000 0.000000 0.000000 0.000000 0.000000 0.000000 -0.137009 0.385136 37.138388 -0.659242 -0.514146 -0.141421 0.657997 0.515737 0.135502 0.000000 0.000000 0.000000 -0.137009 0.385136 37.138388 -0.000000 0.000000 0.000000 0.190830 -0.464588 -1.398032 0.000000 0.000000 0.000000
-47.688713 80.304809 331.696602 0.071791 -0.411424 -37.414010 -0.306993 0.283160 37.415027 -0.000000 0.000000 0.000000 -1.063360 -0.195897 0.270249 0.000000 0.000000 0.000000 -0.164783 1.879550 -0.510013 7.740850 4.661626 -1.769839 9.142808 15.958062 -0.659318 -7.225706 -15.194337 0.823246 0.000000 0.000000 0.000000 0.000000 0.000000 0.000000 1.941189 0.541689 0.662245 7.489917 -3.413139 -0.214272 31.302108 54.517805 13.350917 -44.819190 14.644272 -40.364960 0.000000 0.000000 0.000000 0.000000 0.000000 0.000000 -0.306993 0.283160 37.415027 -0.721312 -0.485981 -0.162448 0.719958 0.487986 0.156323 0.000000 0.000000 0.000000 -0.306993 0.283160 37.415027 -0.000000 0.000000 0.000000 0.227310 -0.486371 -1.546032 0.000000 0.000000 0.000000
-47.484794 80.335412 331.757539 0.369870 -0.494001 -37.713886 -0.594786 0.164524 37.716335 -0.000000 0.000000 0.000000 -0.690686 -0.437150 0.254788 0.000000 0.000000 0.000000 -0.014136 2.799130 -0.805491 9.304627 6.447892 -2.177802 12.247569 19.781627 -1.313813 -5.805065 -19.548050 2.536124 0.000000 0.000000 0.000000 0.000000 0.000000 0.000000 3.109024 0.479966 1.032558 13.213648 -2.424505 -0.372643 24.413925 56.199101 21.202870 -43.601647 13.383884 -45.114643 0.000000 0.000000 0.000000 0.000000 0.000000 0.000000 -1.527059 0.084234 37.623755 -0.020674 -0.967837 -0.099679 0.807300 0.463640 0.184099 0.000000 0.000000 0.000000 -1.660441 -0.053071 37.745624 0.975878 -0.480261 -0.024162 0.266875 -0.506880 -1.700856 0.000000 0.000000 0.000000
